<?xml version="1.0" encoding="UTF-8"?>
<svg xmlns="http://www.w3.org/2000/svg" xmlns:xlink="http://www.w3.org/1999/xlink" width="260pt" height="260pt" viewBox="0 0 260 260" version="1.1">
<g id="surface1">
<path style=" stroke:none;fill-rule:nonzero;fill:rgb(96.078431%,50.196078%,12.941176%);fill-opacity:1;" d="M 27.082031 0 L 232.917969 0 C 247.875 0 260 12.125 260 27.082031 L 260 232.917969 C 260 247.875 247.875 260 232.917969 260 L 27.082031 260 C 12.125 260 0 247.875 0 232.917969 L 0 27.082031 C 0 12.125 12.125 0 27.082031 0 Z M 27.082031 0 "/>
<path style=" stroke:none;fill-rule:evenodd;fill:rgb(0%,0%,0%);fill-opacity:1;" d="M 204.421875 115.171875 C 214.144531 108.664062 220.546875 97.589844 220.546875 85.023438 C 220.546875 64.992188 204.28125 48.75 184.214844 48.75 C 171.382812 48.75 160.101562 55.394531 153.636719 65.425781 C 177.167969 73.503906 195.898438 91.882812 204.421875 115.171875 Z M 59.457031 115.171875 C 49.734375 108.664062 43.332031 97.589844 43.332031 85.023438 C 43.332031 64.992188 59.597656 48.75 79.664062 48.75 C 92.496094 48.75 103.777344 55.394531 110.238281 65.429688 C 86.710938 73.503906 67.980469 91.886719 59.457031 115.171875 Z M 119.113281 130.855469 C 121.839844 123.117188 116.484375 115.3125 108.460938 115.3125 C 104.6875 115.3125 101.519531 116.917969 99.140625 119.746094 C 97.175781 122.089844 95.558594 124.753906 94.035156 127.421875 C 92.167969 130.695312 89.628906 132.910156 85.953125 133.808594 C 85.648438 133.886719 85.34375 133.957031 85.039062 134.03125 C 83.640625 134.359375 82.222656 134.695312 80.976562 135.351562 C 79.390625 136.1875 77.675781 137.246094 76.664062 138.691406 C 73.335938 143.316406 72.476562 148.550781 73.96875 154.074219 C 76.0625 161.75 80.402344 167.53125 88.171875 169.9375 C 94.480469 171.898438 99.679688 168.910156 101.644531 162.550781 C 102.027344 161.394531 102.3125 160.207031 102.53125 158.988281 C 103.261719 155.070312 104.371094 151.246094 106.589844 147.941406 C 108.144531 145.628906 109.953125 143.476562 111.820312 141.390625 C 112.046875 141.136719 112.269531 140.886719 112.496094 140.632812 C 115.132812 137.679688 117.769531 134.730469 119.113281 130.855469 Z M 179.03125 168.363281 C 186.195312 163.933594 189.621094 157.285156 190.03125 148.9375 L 190.03125 148.855469 L 190.035156 148.667969 C 190.042969 148.394531 190.046875 148.125 190 147.90625 C 189.554688 142.867188 188.128906 138.402344 183.277344 135.992188 C 181.597656 135.160156 179.792969 134.484375 177.984375 134.035156 C 173.894531 133.039062 170.882812 130.855469 169.042969 126.90625 C 167.363281 123.214844 165.082031 119.9375 161.71875 117.59375 C 154.269531 112.390625 144.601562 116.726562 143.554688 125.75 C 143.207031 128.800781 144.09375 131.660156 145.773438 134.097656 C 147.613281 136.796875 149.671875 139.398438 151.957031 141.742188 C 156.457031 146.335938 159.3125 151.699219 160.609375 157.992188 C 161.054688 160.175781 161.625 162.359375 162.417969 164.445312 C 163.71875 167.785156 166.285156 169.679688 169.773438 170.324219 C 173.132812 170.933594 176.210938 170.097656 179.03125 168.363281 Z M 131.796875 170.644531 C 132.75 170.804688 133.703125 170.960938 134.660156 171.113281 C 137.292969 171.535156 139.929688 171.957031 142.511719 172.570312 C 144.097656 172.957031 145.683594 173.824219 147.015625 174.820312 C 151.390625 178.03125 151.738281 184.261719 147.710938 187.921875 C 146.472656 189.050781 144.984375 189.886719 143.5 190.71875 C 143.082031 190.949219 142.667969 191.183594 142.257812 191.421875 C 141.550781 191.839844 140.820312 192.210938 140.085938 192.585938 C 139.074219 193.101562 138.058594 193.613281 137.121094 194.246094 C 134.460938 196.046875 133.761719 198.421875 134.648438 201.859375 C 135.410156 204.78125 137.503906 206.609375 140.515625 206.933594 C 144.191406 207.285156 147.488281 206.097656 150.660156 204.363281 C 150.898438 204.234375 151.128906 204.105469 151.355469 203.976562 L 151.359375 203.976562 C 151.585938 203.847656 151.816406 203.722656 152.054688 203.59375 C 153.417969 202.820312 154.558594 203.015625 155.257812 204.105469 C 155.921875 205.164062 155.605469 206.355469 154.335938 207.253906 C 149.203125 210.945312 143.527344 213.289062 137.3125 214.15625 C 127.199219 215.570312 117.910156 213.324219 109.476562 207.445312 C 108.90625 207.027344 108.175781 206.417969 108.082031 205.839844 C 107.988281 205.132812 108.273438 203.976562 108.777344 203.625 C 109.382812 203.207031 110.492188 203.207031 111.21875 203.496094 C 112.441406 203.953125 113.632812 204.46875 114.824219 204.984375 C 116.140625 205.554688 117.449219 206.121094 118.796875 206.609375 C 119.75 206.964844 120.890625 206.964844 121.9375 206.964844 C 127.167969 206.933594 129.324219 203.144531 129.101562 198.582031 C 129.007812 196.625 127.863281 195.179688 126.28125 194.183594 C 125.308594 193.582031 124.277344 193.042969 123.242188 192.503906 C 122.625 192.179688 122.003906 191.855469 121.398438 191.519531 C 120.996094 191.296875 120.585938 191.082031 120.171875 190.867188 C 119.035156 190.269531 117.890625 189.671875 116.863281 188.917969 C 111.253906 184.804688 111.664062 177.484375 117.65625 173.953125 C 120.828125 172.089844 124.378906 171.480469 127.992188 171.191406 C 128.625 171.140625 129.257812 171.109375 129.894531 171.078125 C 130.527344 171.046875 131.160156 171.011719 131.796875 170.964844 C 131.773438 170.898438 131.78125 170.820312 131.789062 170.746094 C 131.792969 170.726562 131.792969 170.707031 131.792969 170.6875 C 131.796875 170.671875 131.796875 170.65625 131.796875 170.644531 Z M 131.796875 170.644531 "/>
</g>
</svg>
